<svg id="Capa_4" data-name="Capa 4" xmlns="http://www.w3.org/2000/svg" viewBox="0 0 1400 224"><defs><style>.cls-1{fill:#bcb8b8;}.cls-2{fill:#fff;}</style></defs><title>Mesa de trabajo 1</title><path class="cls-1" d="M1404,33V224H4V33C14.94,21.18,32.87,5.24,55.73,1.68A61.54,61.54,0,0,1,63,1c46-1.56,57,50.89,108,61q2.82.55,5.55.9c47.13,5.9,72.64-35.65,121.73-40.3A98.42,98.42,0,0,1,320,23c40.83,5.14,48.79,28.07,86,47a112.29,112.29,0,0,0,42.75,12.28C518.31,87.74,582.69,27,668,22l2.2-.11C823.86,14.65,869.31,192.14,1026,220a226.92,226.92,0,0,0,31.1,3.34c74.28,2.86,181.59-28.9,328.9-172.45Q1394.9,42.24,1404,33Z"/><path class="cls-2" d="M4,33V224H-1396V33c10.94-11.82,28.87-27.76,51.73-31.32C-1306.95,7.84-1293.8,52.73-1247,62a72.58,72.58,0,0,0,23.55.9c47.13,5.9,72.64-35.65,121.73-40.3,1.22.11,2.46.24,3.72.4,40.83,5.14,48.79,28.07,86,47a111.87,111.87,0,0,0,60.75,12.28C-881.69,87.74-817.31,27-732,22l2.2-.11C-590.31,28.66-542.4,193.26-392,220q5.81,1,12,1.8a267.62,267.62,0,0,0,37.13,1.54c74.28,2.86,181.59-28.9,328.9-172.45Q-5.11,42.24,4,33Z"/><path class="cls-2" d="M1404,33V224H1V36A98,98,0,0,1,55.73,1.68C93.05,7.84,106.2,52.73,153,62a72.58,72.58,0,0,0,23.55.9c47.13,5.9,72.64-35.65,121.73-40.3,1.22.11,2.46.24,3.72.4,40.83,5.14,48.79,28.07,86,47a111.87,111.87,0,0,0,60.75,12.28C518.31,87.74,582.69,27,668,22l2.2-.11C809.69,28.66,857.6,193.26,1008,220q5.81,1,12,1.8a267.62,267.62,0,0,0,37.13,1.54c74.28,2.86,181.59-28.9,328.9-172.45Q1394.9,42.24,1404,33Z"/></svg>