<svg id="Capa_4" data-name="Capa 4" xmlns="http://www.w3.org/2000/svg" viewBox="0 0 1400 223.03"><defs><style>.cls-1{fill:#b5b5b5;}.cls-2{fill:#fff;}</style></defs><title>wave2</title><path class="cls-1" d="M1400,41V232H0V41C11.11,29,29.42,12.75,52.78,9.53A60.4,60.4,0,0,1,59,9c46-1.56,57,50.89,108,61q3.39.68,6.63,1c46.77,5.18,72.3-36.38,121.68-40.51A98.77,98.77,0,0,1,316,31c40.83,5.14,48.79,28.07,86,47a112.38,112.38,0,0,0,43.72,12.36h0C514.92,95.16,579.1,35,664,30c1.08-.06,2.15-.12,3.22-.15C820.06,23.43,865.65,200.2,1022,228a226.68,226.68,0,0,0,32.11,3.37l2.79.07c74.46,1.66,181.26-31.73,327.1-174.5Q1391.92,49.19,1400,41Z" transform="translate(0 -8.97)"/><path class="cls-2" d="M1400,41V232H0V41C11.11,29,29.42,12.75,52.78,9.53,90.83,15.07,103.8,60.65,151,70a72.86,72.86,0,0,0,22.63,1c46.77,5.18,72.3-36.38,121.68-40.51,1.54.13,3.1.29,4.69.49,40.83,5.14,48.79,28.07,86,47a111.84,111.84,0,0,0,59.72,12.36h0C514.92,95.16,579.1,35,664,30c1.08-.06,2.15-.12,3.22-.15,140.25,6,188,171.35,338.78,198.15a228.83,228.83,0,0,0,48.11,3.37l2.79.07c74.46,1.66,181.26-31.73,327.1-174.5Q1391.92,49.19,1400,41Z" transform="translate(0 -8.97)"/></svg>