<svg id="Capa_4" data-name="Capa 4" xmlns="http://www.w3.org/2000/svg" viewBox="0 0 1400 223.03"><defs><style>.cls-1{fill:#fff;}.cls-2{fill:#8e8d8d;}</style></defs><title>wave</title><path class="cls-1" d="M0,41C12.08,28,32.66,9.89,59,9c46-1.56,57,50.89,108,61,57.47,11.39,82.63-47.36,149-39,40.83,5.14,48.79,28.07,86,47,87.29,44.4,159.56-42,262-48,155.43-9,200.56,170,358,198,76.82,13.66,198.9-5.37,378-187V232H0Z" transform="translate(0 -8.97)"/><path class="cls-2" d="M167,70c1.54.3,3.05.56,4.55.76A72.24,72.24,0,0,1,147,70C100.62,60.81,87.29,16.65,50.74,9.85A60.17,60.17,0,0,1,59,9C105,7.44,116,59.89,167,70Z" transform="translate(0 -8.97)"/><path class="cls-2" d="M402,78a112.56,112.56,0,0,0,41.79,12.21A112,112,0,0,1,382,78c-37.21-18.93-45.17-41.86-86-47-.91-.11-1.8-.22-2.69-.3A98,98,0,0,1,316,31C356.83,36.14,364.79,59.07,402,78Z" transform="translate(0 -8.97)"/><path class="cls-2" d="M1022,228a227.16,227.16,0,0,0,30,3.3,229.06,229.06,0,0,1-50-3.3C852,201.33,803.92,37.45,665.21,29.94,819.67,21.88,865,200.08,1022,228Z" transform="translate(0 -8.97)"/></svg>